<?xml version="1.0" encoding="UTF-8"?>
<!DOCTYPE score-partwise PUBLIC "-//Recordare//DTD MusicXML 2.0 Partwise//EN"
  "http://www.musicxml.org/dtds/partwise.dtd">
<score-partwise version="2.0"><work><work-title/></work><identification><creator type="composer"/><creator type="lyricist"/><rights/><encoding><software>Noteflight version 0.4</software><encoding-date>2026-07-21</encoding-date><supports attribute="new-system" element="print" type="no" value="no"/><supports attribute="new-page" element="print" type="no" value="no"/></encoding></identification><defaults><scaling><millimeters>1.8344444456</millimeters><tenths>10</tenths></scaling><page-layout><page-height>1523.0769230769229</page-height><page-width>1176.923076923077</page-width><page-margins type="both"><left-margin>68.75</left-margin><right-margin>65.38461538461537</right-margin><top-margin>111.53846153846153</top-margin><bottom-margin>92.30769230769229</bottom-margin></page-margins></page-layout><system-layout><system-margins><left-margin>68.75</left-margin><right-margin>30.769230769230766</right-margin></system-margins><system-distance>2.5</system-distance><top-system-distance>64.03846153846153</top-system-distance></system-layout><staff-layout><staff-distance>0</staff-distance></staff-layout></defaults><part-list><score-part id="P1"><part-name>Piano</part-name><part-abbreviation>Pno.</part-abbreviation><score-instrument id="P1I1"><instrument-name>Piano</instrument-name><instrument-sound>keyboard.piano</instrument-sound></score-instrument><midi-instrument id="P1I1"><midi-channel>1</midi-channel><midi-program>1</midi-program></midi-instrument></score-part></part-list><part id="P1"><measure number="1"><direction placement="above"><direction-type><metronome print-object="no"><beat-unit>quarter</beat-unit><per-minute>100</per-minute></metronome></direction-type><sound tempo="100"/></direction><direction placement="above"><direction-type><metronome print-object="yes"><beat-unit>quarter</beat-unit><per-minute>100</per-minute></metronome></direction-type><sound tempo="100"/></direction><note><rest/><duration>64</duration><voice>1</voice><type>quarter</type><staff>1</staff></note><note><pitch><step>F</step><alter>1</alter><octave>4</octave></pitch><duration>32</duration><tie type="start"/><voice>1</voice><type>eighth</type><accidental>sharp</accidental><staff>1</staff><notations><tied type="start"/></notations></note><note><pitch><step>G</step><octave>4</octave></pitch><duration>128</duration><voice>1</voice><type>half</type><staff>1</staff></note><note><rest/><duration>32</duration><voice>1</voice><type>eighth</type><staff>1</staff></note><backup><duration>256</duration></backup><attributes><divisions>64</divisions><key><fifths>0</fifths><mode>major</mode></key><time print-object="yes"><beats>4</beats><beat-type>4</beat-type></time><staves>2</staves><part-symbol>brace</part-symbol><clef number="1"><sign>G</sign><line>2</line></clef><clef number="2"><sign>F</sign><line>4</line></clef></attributes><note><pitch><step>E</step><octave>3</octave></pitch><duration>32</duration><tie type="start"/><voice>3</voice><type>eighth</type><staff>2</staff><notations><tied type="start"/></notations></note><note><pitch><step>B</step><octave>3</octave></pitch><duration>192</duration><voice>3</voice><type>half</type><dot/><staff>2</staff></note><note><rest/><duration>32</duration><voice>3</voice><type>eighth</type><staff>2</staff></note></measure><measure number="2"><note><rest/><duration>64</duration><voice>1</voice><type>quarter</type><staff>1</staff></note><note><pitch><step>E</step><octave>4</octave></pitch><duration>32</duration><tie type="start"/><voice>1</voice><type>eighth</type><staff>1</staff><notations><tied type="start"/></notations></note><note><pitch><step>G</step><octave>4</octave></pitch><duration>128</duration><voice>1</voice><type>half</type><staff>1</staff></note><note><rest/><duration>32</duration><voice>1</voice><type>eighth</type><staff>1</staff></note><backup><duration>256</duration></backup><attributes/><note><pitch><step>C</step><octave>3</octave></pitch><duration>32</duration><tie type="start"/><voice>3</voice><type>eighth</type><staff>2</staff><notations><tied type="start"/></notations></note><note><pitch><step>B</step><octave>3</octave></pitch><duration>192</duration><voice>3</voice><type>half</type><dot/><staff>2</staff></note><note><rest/><duration>32</duration><voice>3</voice><type>eighth</type><staff>2</staff></note></measure><measure number="3"><note><rest/><duration>64</duration><voice>1</voice><type>quarter</type><staff>1</staff></note><note><pitch><step>C</step><octave>4</octave></pitch><duration>32</duration><tie type="start"/><voice>1</voice><type>eighth</type><staff>1</staff><notations><tied type="start"/></notations></note><note><pitch><step>F</step><alter>1</alter><octave>4</octave></pitch><duration>128</duration><voice>1</voice><type>half</type><accidental>sharp</accidental><staff>1</staff></note><note><rest/><duration>32</duration><voice>1</voice><type>eighth</type><staff>1</staff></note><backup><duration>256</duration></backup><attributes/><note><pitch><step>A</step><octave>2</octave></pitch><duration>32</duration><tie type="start"/><voice>3</voice><type>eighth</type><staff>2</staff><notations><tied type="start"/></notations></note><note><pitch><step>G</step><octave>3</octave></pitch><duration>192</duration><voice>3</voice><type>half</type><dot/><staff>2</staff></note><note><rest/><duration>32</duration><voice>3</voice><type>eighth</type><staff>2</staff></note></measure><measure number="4"><note><pitch><step>B</step><octave>3</octave></pitch><duration>256</duration><voice>1</voice><type>whole</type><staff>1</staff></note><note><chord/><pitch><step>E</step><octave>4</octave></pitch><duration>256</duration><voice>1</voice><type>whole</type><staff>1</staff></note><note><chord/><pitch><step>F</step><alter>1</alter><octave>4</octave></pitch><duration>256</duration><voice>1</voice><type>whole</type><accidental>sharp</accidental><staff>1</staff></note><backup><duration>256</duration></backup><attributes/><note><pitch><step>B</step><octave>2</octave></pitch><duration>256</duration><voice>3</voice><type>whole</type><staff>2</staff></note></measure><measure number="5"><note><rest/><duration>64</duration><voice>1</voice><type>quarter</type><staff>1</staff></note><note><pitch><step>E</step><octave>4</octave></pitch><duration>32</duration><tie type="start"/><voice>1</voice><type>eighth</type><staff>1</staff><notations><tied type="start"/></notations></note><note><pitch><step>G</step><octave>4</octave></pitch><duration>128</duration><voice>1</voice><type>half</type><staff>1</staff></note><note><rest/><duration>32</duration><voice>1</voice><type>eighth</type><staff>1</staff></note><backup><duration>256</duration></backup><attributes/><note><pitch><step>E</step><octave>3</octave></pitch><duration>32</duration><tie type="start"/><voice>3</voice><type>eighth</type><staff>2</staff><notations><tied type="start"/></notations></note><note><pitch><step>B</step><octave>3</octave></pitch><duration>192</duration><voice>3</voice><type>half</type><dot/><staff>2</staff></note><note><rest/><duration>32</duration><voice>3</voice><type>eighth</type><staff>2</staff></note></measure><measure number="6"><note><rest/><duration>64</duration><voice>1</voice><type>quarter</type><staff>1</staff></note><note><pitch><step>E</step><octave>4</octave></pitch><duration>32</duration><tie type="start"/><voice>1</voice><type>eighth</type><staff>1</staff><notations><tied type="start"/></notations></note><note><pitch><step>G</step><octave>4</octave></pitch><duration>128</duration><voice>1</voice><type>half</type><staff>1</staff></note><note><rest/><duration>32</duration><voice>1</voice><type>eighth</type><staff>1</staff></note><backup><duration>256</duration></backup><attributes/><note><pitch><step>C</step><octave>3</octave></pitch><duration>32</duration><tie type="start"/><voice>3</voice><type>eighth</type><staff>2</staff><notations><tied type="start"/></notations></note><note><pitch><step>B</step><octave>3</octave></pitch><duration>192</duration><voice>3</voice><type>half</type><dot/><staff>2</staff></note><note><rest/><duration>32</duration><voice>3</voice><type>eighth</type><staff>2</staff></note></measure><measure number="7"><note><rest/><duration>64</duration><voice>1</voice><type>quarter</type><staff>1</staff></note><note><pitch><step>C</step><octave>4</octave></pitch><duration>32</duration><tie type="start"/><voice>1</voice><type>eighth</type><staff>1</staff><notations><tied type="start"/></notations></note><note><pitch><step>F</step><alter>1</alter><octave>4</octave></pitch><duration>128</duration><voice>1</voice><type>half</type><accidental>sharp</accidental><staff>1</staff></note><note><rest/><duration>32</duration><voice>1</voice><type>eighth</type><staff>1</staff></note><backup><duration>256</duration></backup><attributes/><note><pitch><step>A</step><octave>2</octave></pitch><duration>32</duration><tie type="start"/><voice>3</voice><type>eighth</type><staff>2</staff><notations><tied type="start"/></notations></note><note><pitch><step>G</step><octave>3</octave></pitch><duration>192</duration><voice>3</voice><type>half</type><dot/><staff>2</staff></note><note><rest/><duration>32</duration><voice>3</voice><type>eighth</type><staff>2</staff></note></measure><measure number="8"><note><pitch><step>B</step><octave>3</octave></pitch><duration>256</duration><voice>1</voice><type>whole</type><staff>1</staff></note><note><chord/><pitch><step>E</step><octave>4</octave></pitch><duration>256</duration><voice>1</voice><type>whole</type><staff>1</staff></note><note><chord/><pitch><step>F</step><alter>1</alter><octave>4</octave></pitch><duration>256</duration><voice>1</voice><type>whole</type><accidental>sharp</accidental><staff>1</staff></note><backup><duration>256</duration></backup><attributes/><note><pitch><step>B</step><octave>2</octave></pitch><duration>256</duration><voice>3</voice><type>whole</type><staff>2</staff></note><barline location="right"><bar-style>light-heavy</bar-style></barline></measure></part></score-partwise>